<svg width="12" height="12" viewBox="0 0 12 12" fill="none" xmlns="http://www.w3.org/2000/svg">
    <path fill-rule="evenodd" clip-rule="evenodd" d="M1.74704 11.6315C1.20944 11.512 0.870473 10.9793 0.989941 10.4417L1.36722 8.74398C1.00142 7.99933 0.808106 7.17759 0.808106 6.32892C0.808106 3.29998 3.26354 0.844543 6.29248 0.844543C9.32142 0.844543 11.7769 3.29998 11.7769 6.32892C11.7769 9.35785 9.32142 11.8133 6.29248 11.8133C5.44381 11.8133 4.62207 11.62 3.87742 11.2542L2.17967 11.6315C2.0372 11.6631 1.88951 11.6631 1.74704 11.6315ZM1.80531 6.32862C1.80531 7.07648 1.98806 7.79687 2.33263 8.44124C2.38885 8.54636 2.40553 8.66814 2.37968 8.7845L1.9634 10.6577L3.83664 10.2415C3.95301 10.2156 4.07479 10.2323 4.17991 10.2885C4.82427 10.6331 5.54466 10.8158 6.29253 10.8158C8.77075 10.8158 10.7797 8.80684 10.7797 6.32862C10.7797 3.8504 8.77075 1.8414 6.29253 1.8414C3.81431 1.8414 1.80531 3.8504 1.80531 6.32862Z" fill="#BCCDE1"/>
</svg>
