<svg width="12" height="12" viewBox="0 0 12 12" fill="none" xmlns="http://www.w3.org/2000/svg">
    <path fill-rule="evenodd" clip-rule="evenodd" d="M1.99224 8.99703C0.100895 7.10568 0.100895 4.03922 1.99224 2.14788C3.88358 0.256535 6.95005 0.256535 8.84139 2.14788C10.5703 3.87675 10.7188 6.58754 9.28691 8.48511L11.1975 10.3957C11.696 10.8942 10.9483 11.6419 10.4498 11.1434L10.4495 11.1432L10.4495 11.1432L8.56191 9.25568C6.65911 10.884 3.79302 10.7978 1.99224 8.99703ZM8.09335 2.89578C6.61497 1.41739 4.21803 1.41739 2.73965 2.89578C1.26126 4.37416 1.26126 6.77109 2.73965 8.24948C4.21803 9.72786 6.61497 9.72786 8.09335 8.24948C9.57173 6.77109 9.57173 4.37416 8.09335 2.89578Z" fill="#0276FD"/>
</svg>
