<svg width="42" height="41" viewBox="0 0 42 41" fill="none" xmlns="http://www.w3.org/2000/svg">
    <circle cx="20.9912" cy="20.365" r="20.1094" fill="#EFECFD"/>
    <path d="M11.8506 15.6119C11.8506 14.8042 12.5054 14.1494 13.3131 14.1494H14.7756C15.5833 14.1494 16.2381 14.8042 16.2381 15.6119V17.0744C16.2381 17.8821 15.5833 18.5369 14.7756 18.5369H13.3131C12.5054 18.5369 11.8506 17.8821 11.8506 17.0744V15.6119Z" fill="#7468E4"/>
    <path d="M11.8506 22.9244C11.8506 22.1167 12.5054 21.4619 13.3131 21.4619H14.7756C15.5833 21.4619 16.2381 22.1167 16.2381 22.9244V24.3869C16.2381 25.1946 15.5833 25.8494 14.7756 25.8494H13.3131C12.5054 25.8494 11.8506 25.1946 11.8506 24.3869V22.9244Z" fill="#7468E4"/>
    <path d="M26.4756 17.8057C25.6679 17.8057 25.0131 18.4604 25.0131 19.2682V20.7307C25.0131 21.5384 25.6679 22.1932 26.4756 22.1932H27.9381C28.7458 22.1932 29.4006 21.5384 29.4006 20.7307V19.2682C29.4006 18.4604 28.7458 17.8057 27.9381 17.8057H26.4756Z" fill="#7468E4"/>
    <path d="M18.4319 15.6121C18.0281 15.6121 17.7007 15.9395 17.7007 16.3433C17.7007 16.7472 18.0281 17.0746 18.4319 17.0746H19.1632C19.567 17.0746 19.8944 17.402 19.8944 17.8058V22.1933C19.8944 22.5972 19.567 22.9246 19.1632 22.9246H18.4319C18.0281 22.9246 17.7007 23.252 17.7007 23.6558C17.7007 24.0597 18.0281 24.3871 18.4319 24.3871H19.1632C20.3748 24.3871 21.3569 23.4049 21.3569 22.1933V20.7308H22.8194C23.2233 20.7308 23.5507 20.4034 23.5507 19.9996C23.5507 19.5957 23.2233 19.2683 22.8194 19.2683H21.3569V17.8058C21.3569 16.5942 20.3748 15.6121 19.1632 15.6121H18.4319Z" fill="#7468E4"/>
</svg>
