<svg width="41" height="41" viewBox="0 0 41 41" fill="none" xmlns="http://www.w3.org/2000/svg">
    <circle cx="20.584" cy="20.365" r="20.1094" fill="#E4F8FB"/>
    <path d="M25.3368 16.3435H13.6368C12.8291 16.3435 12.1743 16.9983 12.1743 17.806V26.581C12.1743 27.3887 12.8291 28.0435 13.6368 28.0435H19.8524C20.0544 28.0435 20.2181 27.8798 20.2181 27.6779V24.3873C20.2181 23.5795 20.8728 22.9248 21.6806 22.9248H26.4337C26.6356 22.9248 26.7993 22.7611 26.7993 22.5591V17.806C26.7993 16.9983 26.1445 16.3435 25.3368 16.3435Z" fill="#51D5EC"/>
    <path d="M21.6812 25.1187C21.6812 24.7148 22.0085 24.3875 22.4124 24.3875H27.5312C27.935 24.3875 28.2624 24.7148 28.2624 25.1187V28.775C28.2624 29.1788 27.935 29.5062 27.5312 29.5062H22.4124C22.0085 29.5062 21.6812 29.1788 21.6812 28.775V25.1187Z" fill="#51D5EC"/>
</svg>
