<svg width="41" height="41" viewBox="0 0 41 41" fill="none" xmlns="http://www.w3.org/2000/svg">
    <circle cx="20.2354" cy="20.365" r="20.1094" fill="#FDF1E2"/>
    <path fill-rule="evenodd" clip-rule="evenodd" d="M19.8696 27.3118C23.9082 27.3118 27.1821 24.0378 27.1821 19.9993C27.1821 15.9607 23.9082 12.6868 19.8696 12.6868C15.831 12.6868 12.5571 15.9607 12.5571 19.9993C12.5571 24.0378 15.831 27.3118 19.8696 27.3118ZM20.6009 16.343C20.6009 15.9392 20.2735 15.6118 19.8696 15.6118C19.4658 15.6118 19.1384 15.9392 19.1384 16.343V19.9993C19.1384 20.1932 19.2154 20.3792 19.3526 20.5163L21.1807 22.3445C21.4663 22.63 21.9293 22.63 22.2148 22.3445C22.5004 22.0589 22.5004 21.5959 22.2148 21.3103L20.6009 19.6964V16.343Z" fill="#FFB648"/>
</svg>
