<svg width="14" height="14" viewBox="0 0 14 14" fill="none" xmlns="http://www.w3.org/2000/svg">
    <path d="M13.6059 11.0425C13.6059 11.3994 13.3165 11.6887 12.9596 11.6887H1.08958C0.732683 11.6887 0.443359 11.3994 0.443359 11.0425C0.443359 10.6856 0.732682 10.3962 1.08958 10.3962H1.10148V5.89272C1.10148 2.66937 3.75373 0.0567017 7.02461 0.0567017C10.2955 0.0567017 12.9477 2.66937 12.9477 5.89272V10.3962H12.9596C13.3165 10.3962 13.6059 10.6856 13.6059 11.0425ZM2.41773 10.3962H11.6315V5.89272C11.6315 3.38345 9.56892 1.34914 7.02461 1.34914C4.4803 1.34914 2.41773 3.38345 2.41773 5.89272V10.3962ZM5.54459 13.0406C5.36556 12.6786 5.70669 12.3349 6.11055 12.3349H7.93867C8.34253 12.3349 8.68366 12.6786 8.50463 13.0406C8.42533 13.201 8.31882 13.3488 8.18802 13.4773C7.87947 13.7802 7.46097 13.9505 7.02461 13.9505C6.58825 13.9505 6.16975 13.7802 5.8612 13.4773C5.7304 13.3488 5.62389 13.201 5.54459 13.0406Z" fill="#C1C1C1"/>
</svg>
