<svg width="16" height="15" viewBox="0 0 16 15" fill="none" xmlns="http://www.w3.org/2000/svg">
    <path fill-rule="evenodd" clip-rule="evenodd" d="M10.051 10.7967C9.06041 11.5668 7.81564 12.0253 6.46377 12.0253C3.2329 12.0253 0.61377 9.40618 0.61377 6.17532C0.61377 2.94445 3.2329 0.325317 6.46377 0.325317C9.69464 0.325317 12.3138 2.94445 12.3138 6.17532C12.3138 7.52719 11.8552 8.77196 11.0852 9.76257L15.0246 13.702C15.3102 13.9876 15.3102 14.4506 15.0246 14.7361C14.739 15.0217 14.276 15.0217 13.9904 14.7361L10.051 10.7967ZM10.8513 6.17532C10.8513 8.59847 8.88692 10.5628 6.46377 10.5628C4.04062 10.5628 2.07627 8.59847 2.07627 6.17532C2.07627 3.75217 4.04062 1.78782 6.46377 1.78782C8.88692 1.78782 10.8513 3.75217 10.8513 6.17532Z" fill="#C1C1C1"/>
</svg>
