<svg width="24" height="24" viewBox="0 0 24 24" fill="none" xmlns="http://www.w3.org/2000/svg">
    <circle cx="12.0545" cy="12.2964" r="11.7" fill="#FFEFF0"/>
    <path d="M9.67042 9.54705H7.41817V15.1777H9.67042C11.2229 15.1777 12.4053 13.955 12.4053 12.3624C12.4053 10.7697 11.2229 9.54705 9.67042 9.54705ZM9.67042 13.9389H8.70517V10.7858H9.67042C10.5552 10.7858 11.1666 11.3971 11.1666 12.3624C11.1666 13.3276 10.5552 13.9389 9.67042 13.9389ZM14.8954 15.2903C16.1181 15.2903 16.9868 14.6468 16.9868 13.5609C16.9868 12.3704 16.0296 12.0728 15.1769 11.8154C14.3002 11.5499 14.1634 11.373 14.1634 11.1156C14.1634 10.8904 14.3645 10.6893 14.7667 10.6893C15.2815 10.6893 15.5469 10.9386 15.74 11.3408L16.8259 10.7053C16.4157 9.87684 15.6917 9.43444 14.7667 9.43444C13.7934 9.43444 12.8764 10.0618 12.8764 11.1478C12.8764 12.2256 13.6969 12.6278 14.5334 12.8611C15.378 13.0943 15.6998 13.2311 15.6998 13.577C15.6998 13.7941 15.5469 14.0355 14.9356 14.0355C14.3002 14.0355 13.9543 13.7218 13.7532 13.2552L12.6432 13.8987C12.9569 14.7272 13.713 15.2903 14.8954 15.2903Z" fill="#FE6470"/>
</svg>
