<svg width="41" height="41" viewBox="0 0 41 41" fill="none" xmlns="http://www.w3.org/2000/svg">
    <rect x="1.29824" y="1.19094" width="38.7562" height="38.7562" rx="6.94688" stroke="#F2F2F2" stroke-width="0.73125"/>
    <path d="M19.214 17.644H23.6015C23.7954 17.644 23.9814 17.5669 24.1185 17.4298C24.2557 17.2927 24.3327 17.1067 24.3327 16.9127C24.3327 16.7188 24.2557 16.5328 24.1185 16.3956C23.9814 16.2585 23.7954 16.1815 23.6015 16.1815H19.214C19.02 16.1815 18.834 16.2585 18.6969 16.3956C18.5598 16.5328 18.4827 16.7188 18.4827 16.9127C18.4827 17.1067 18.5598 17.2927 18.6969 17.4298C18.834 17.5669 19.02 17.644 19.214 17.644ZM17.7515 20.569H23.6015C23.7954 20.569 23.9814 20.4919 24.1185 20.3548C24.2557 20.2177 24.3327 20.0317 24.3327 19.8377C24.3327 19.6438 24.2557 19.4578 24.1185 19.3206C23.9814 19.1835 23.7954 19.1065 23.6015 19.1065H17.7515C17.5575 19.1065 17.3715 19.1835 17.2344 19.3206C17.0973 19.4578 17.0202 19.6438 17.0202 19.8377C17.0202 20.0317 17.0973 20.2177 17.2344 20.3548C17.3715 20.4919 17.5575 20.569 17.7515 20.569ZM17.7515 23.494H23.6015C23.7954 23.494 23.9814 23.4169 24.1185 23.2798C24.2557 23.1427 24.3327 22.9567 24.3327 22.7627C24.3327 22.5688 24.2557 22.3828 24.1185 22.2456C23.9814 22.1085 23.7954 22.0315 23.6015 22.0315H17.7515C17.5575 22.0315 17.3715 22.1085 17.2344 22.2456C17.0973 22.3828 17.0202 22.5688 17.0202 22.7627C17.0202 22.9567 17.0973 23.1427 17.2344 23.2798C17.3715 23.4169 17.5575 23.494 17.7515 23.494ZM26.5265 13.2565H14.8265C14.6325 13.2565 14.4465 13.3335 14.3094 13.4706C14.1723 13.6078 14.0952 13.7938 14.0952 13.9877V27.1502C14.0952 27.286 14.133 27.4191 14.2044 27.5347C14.2758 27.6502 14.378 27.7435 14.4994 27.8043C14.6209 27.865 14.7569 27.8907 14.8921 27.8785C15.0274 27.8663 15.1566 27.8167 15.2652 27.7352L16.7789 26.6018L18.2853 27.7352C18.4119 27.8302 18.5658 27.8815 18.724 27.8815C18.8822 27.8815 19.0362 27.8302 19.1628 27.7352L20.6765 26.6018L22.1902 27.7352C22.3167 27.8302 22.4707 27.8815 22.6289 27.8815C22.7871 27.8815 22.9411 27.8302 23.0677 27.7352L24.574 26.6018L26.0877 27.7352C26.1969 27.8166 26.3266 27.8659 26.4622 27.8775C26.5979 27.8891 26.7341 27.8626 26.8555 27.801C26.9761 27.7403 27.0775 27.6473 27.1485 27.5324C27.2195 27.4175 27.2573 27.2853 27.2577 27.1502V13.9877C27.2577 13.7938 27.1807 13.6078 27.0435 13.4706C26.9064 13.3335 26.7204 13.2565 26.5265 13.2565ZM25.7952 25.6877L25.0128 25.1027C24.8862 25.0078 24.7322 24.9565 24.574 24.9565C24.4158 24.9565 24.2619 25.0078 24.1353 25.1027L22.6289 26.2362L21.1152 25.1027C20.9886 25.0078 20.8347 24.9565 20.6765 24.9565C20.5182 24.9565 20.3643 25.0078 20.2377 25.1027L18.724 26.2362L17.2177 25.1027C17.0911 25.0078 16.9371 24.9565 16.7789 24.9565C16.6207 24.9565 16.4667 25.0078 16.3402 25.1027L15.5577 25.6877V14.719H25.7952V25.6877Z" fill="#FCE37E"/>
</svg>
