<svg width="40" height="41" viewBox="0 0 40 41" fill="none" xmlns="http://www.w3.org/2000/svg">
    <rect x="0.496973" y="1.19106" width="38.7562" height="38.7562" rx="6.94688" stroke="#F2F2F2" stroke-width="0.73125"/>
    <path d="M18.7487 16.1779L19.1436 15.7465V18.3717C19.1436 18.5656 19.2206 18.7516 19.3577 18.8888C19.4949 19.0259 19.6809 19.1029 19.8748 19.1029C20.0687 19.1029 20.2547 19.0259 20.3919 18.8888C20.529 18.7516 20.6061 18.5656 20.6061 18.3717V15.7465L21.0009 16.1487C21.0673 16.2237 21.1484 16.2842 21.2391 16.3266C21.3298 16.3689 21.4283 16.3922 21.5284 16.3949C21.6285 16.3977 21.7281 16.3798 21.821 16.3425C21.9139 16.3052 21.9982 16.2492 22.0686 16.1779C22.1371 16.11 22.1915 16.0291 22.2286 15.94C22.2657 15.8509 22.2849 15.7553 22.2849 15.6588C22.2849 15.5622 22.2657 15.4666 22.2286 15.3775C22.1915 15.2884 22.1371 15.2075 22.0686 15.1396L20.394 13.465C20.3244 13.3984 20.2424 13.3462 20.1527 13.3114C19.9746 13.2383 19.775 13.2383 19.5969 13.3114C19.5072 13.3462 19.4252 13.3984 19.3556 13.465L17.6811 15.1103C17.5395 15.2519 17.4599 15.4439 17.4599 15.6441C17.4599 15.8444 17.5395 16.0364 17.6811 16.1779C17.8226 16.3195 18.0146 16.3991 18.2149 16.3991C18.4151 16.3991 18.6071 16.3195 18.7487 16.1779ZM19.8748 20.5654C19.4409 20.5654 19.0168 20.6941 18.656 20.9352C18.2953 21.1762 18.0141 21.5188 17.848 21.9197C17.682 22.3205 17.6386 22.7616 17.7232 23.1872C17.8079 23.6127 18.0168 24.0036 18.3236 24.3104C18.6304 24.6172 19.0213 24.8261 19.4468 24.9108C19.8724 24.9954 20.3135 24.952 20.7143 24.786C21.1152 24.6199 21.4578 24.3387 21.6988 23.978C21.9399 23.6172 22.0686 23.1931 22.0686 22.7592C22.0686 22.1774 21.8374 21.6194 21.426 21.208C21.0146 20.7966 20.4566 20.5654 19.8748 20.5654ZM19.8748 23.4904C19.7302 23.4904 19.5888 23.4476 19.4685 23.3672C19.3483 23.2869 19.2546 23.1727 19.1992 23.039C19.1439 22.9054 19.1294 22.7584 19.1576 22.6165C19.1858 22.4747 19.2555 22.3444 19.3577 22.2421C19.46 22.1399 19.5903 22.0702 19.7321 22.042C19.874 22.0138 20.021 22.0283 20.1546 22.0836C20.2883 22.139 20.4025 22.2327 20.4828 22.3529C20.5632 22.4732 20.6061 22.6146 20.6061 22.7592C20.6061 22.9531 20.529 23.1391 20.3919 23.2763C20.2547 23.4134 20.0687 23.4904 19.8748 23.4904ZM14.7561 22.7592C14.7561 22.9038 14.7989 23.0452 14.8793 23.1655C14.9596 23.2857 15.0738 23.3794 15.2075 23.4348C15.3411 23.4901 15.4881 23.5046 15.63 23.4764C15.7718 23.4482 15.9021 23.3785 16.0044 23.2763C16.1066 23.174 16.1763 23.0437 16.2045 22.9019C16.2327 22.76 16.2182 22.613 16.1629 22.4794C16.1075 22.3457 16.0138 22.2315 15.8936 22.1512C15.7733 22.0708 15.6319 22.0279 15.4873 22.0279C15.2934 22.0279 15.1074 22.105 14.9702 22.2421C14.8331 22.3793 14.7561 22.5653 14.7561 22.7592ZM24.9936 22.7592C24.9936 22.6146 24.9507 22.4732 24.8703 22.3529C24.79 22.2327 24.6758 22.139 24.5421 22.0836C24.4085 22.0283 24.2615 22.0138 24.1196 22.042C23.9778 22.0702 23.8475 22.1399 23.7452 22.2421C23.643 22.3444 23.5733 22.4747 23.5451 22.6165C23.5169 22.7584 23.5314 22.9054 23.5867 23.039C23.6421 23.1727 23.7358 23.2869 23.856 23.3672C23.9763 23.4476 24.1177 23.4904 24.2623 23.4904C24.4562 23.4904 24.6422 23.4134 24.7794 23.2763C24.9165 23.1391 24.9936 22.9531 24.9936 22.7592ZM25.7248 17.6404H22.7998C22.6059 17.6404 22.4199 17.7175 22.2827 17.8546C22.1456 17.9918 22.0686 18.1778 22.0686 18.3717C22.0686 18.5656 22.1456 18.7516 22.2827 18.8888C22.4199 19.0259 22.6059 19.1029 22.7998 19.1029H25.7248C25.9187 19.1029 26.1047 19.18 26.2419 19.3171C26.379 19.4543 26.4561 19.6403 26.4561 19.8342V25.6842C26.4561 25.8781 26.379 26.0641 26.2419 26.2013C26.1047 26.3384 25.9187 26.4154 25.7248 26.4154H14.0248C13.8309 26.4154 13.6449 26.3384 13.5077 26.2013C13.3706 26.0641 13.2936 25.8781 13.2936 25.6842V19.8342C13.2936 19.6403 13.3706 19.4543 13.5077 19.3171C13.6449 19.18 13.8309 19.1029 14.0248 19.1029H16.9498C17.1437 19.1029 17.3297 19.0259 17.4669 18.8888C17.604 18.7516 17.6811 18.5656 17.6811 18.3717C17.6811 18.1778 17.604 17.9918 17.4669 17.8546C17.3297 17.7175 17.1437 17.6404 16.9498 17.6404H14.0248C13.443 17.6404 12.885 17.8716 12.4736 18.283C12.0622 18.6944 11.8311 19.2524 11.8311 19.8342V25.6842C11.8311 26.266 12.0622 26.824 12.4736 27.2354C12.885 27.6468 13.443 27.8779 14.0248 27.8779H25.7248C26.3066 27.8779 26.8646 27.6468 27.276 27.2354C27.6874 26.824 27.9186 26.266 27.9186 25.6842V19.8342C27.9186 19.2524 27.6874 18.6944 27.276 18.283C26.8646 17.8716 26.3066 17.6404 25.7248 17.6404Z" fill="#83DEA4"/>
</svg>
