<svg width="40" height="41" viewBox="0 0 40 41" fill="none" xmlns="http://www.w3.org/2000/svg">
    <rect x="0.697656" y="1.19106" width="38.7562" height="38.7562" rx="6.94688" stroke="#F2F2F2" stroke-width="0.73125"/>
    <path d="M18.9494 16.1779L19.3442 15.7465V18.3717C19.3442 18.5656 19.4213 18.7516 19.5584 18.8888C19.6956 19.0259 19.8815 19.1029 20.0755 19.1029C20.2694 19.1029 20.4554 19.0259 20.5926 18.8888C20.7297 18.7516 20.8067 18.5656 20.8067 18.3717V15.7465L21.2016 16.1487C21.268 16.2237 21.3491 16.2842 21.4398 16.3266C21.5305 16.3689 21.629 16.3922 21.7291 16.3949C21.8292 16.3977 21.9288 16.3798 22.0217 16.3425C22.1146 16.3052 22.1989 16.2492 22.2692 16.1779C22.3378 16.11 22.3922 16.0291 22.4293 15.94C22.4664 15.8509 22.4855 15.7553 22.4855 15.6588C22.4855 15.5622 22.4664 15.4666 22.4293 15.3775C22.3922 15.2884 22.3378 15.2075 22.2692 15.1396L20.5947 13.465C20.5251 13.3984 20.4431 13.3462 20.3534 13.3114C20.1753 13.2383 19.9756 13.2383 19.7976 13.3114C19.7079 13.3462 19.6258 13.3984 19.5563 13.465L17.8817 15.1103C17.7402 15.2519 17.6606 15.4439 17.6606 15.6441C17.6606 15.8444 17.7402 16.0364 17.8817 16.1779C18.0233 16.3195 18.2153 16.3991 18.4156 16.3991C18.6158 16.3991 18.8078 16.3195 18.9494 16.1779ZM20.0755 20.5654C19.6416 20.5654 19.2175 20.6941 18.8567 20.9352C18.4959 21.1762 18.2148 21.5188 18.0487 21.9197C17.8827 22.3205 17.8392 22.7616 17.9239 23.1872C18.0085 23.6127 18.2175 24.0036 18.5243 24.3104C18.8311 24.6172 19.222 24.8261 19.6475 24.9108C20.0731 24.9954 20.5141 24.952 20.915 24.786C21.3159 24.6199 21.6585 24.3387 21.8995 23.978C22.1406 23.6172 22.2692 23.1931 22.2692 22.7592C22.2692 22.1774 22.0381 21.6194 21.6267 21.208C21.2153 20.7966 20.6573 20.5654 20.0755 20.5654ZM20.0755 23.4904C19.9309 23.4904 19.7895 23.4476 19.6692 23.3672C19.549 23.2869 19.4552 23.1727 19.3999 23.039C19.3446 22.9054 19.3301 22.7584 19.3583 22.6165C19.3865 22.4747 19.4561 22.3444 19.5584 22.2421C19.6607 22.1399 19.791 22.0702 19.9328 22.042C20.0747 22.0138 20.2217 22.0283 20.3553 22.0836C20.4889 22.139 20.6031 22.2327 20.6835 22.3529C20.7639 22.4732 20.8067 22.6146 20.8067 22.7592C20.8067 22.9531 20.7297 23.1391 20.5926 23.2763C20.4554 23.4134 20.2694 23.4904 20.0755 23.4904ZM14.9567 22.7592C14.9567 22.9038 14.9996 23.0452 15.08 23.1655C15.1603 23.2857 15.2745 23.3794 15.4082 23.4348C15.5418 23.4901 15.6888 23.5046 15.8306 23.4764C15.9725 23.4482 16.1028 23.3785 16.2051 23.2763C16.3073 23.174 16.377 23.0437 16.4052 22.9019C16.4334 22.76 16.4189 22.613 16.3636 22.4794C16.3082 22.3457 16.2145 22.2315 16.0942 22.1512C15.974 22.0708 15.8326 22.0279 15.688 22.0279C15.494 22.0279 15.3081 22.105 15.1709 22.2421C15.0338 22.3793 14.9567 22.5653 14.9567 22.7592ZM25.1942 22.7592C25.1942 22.6146 25.1514 22.4732 25.071 22.3529C24.9907 22.2327 24.8764 22.139 24.7428 22.0836C24.6092 22.0283 24.4622 22.0138 24.3203 22.042C24.1785 22.0702 24.0482 22.1399 23.9459 22.2421C23.8436 22.3444 23.774 22.4747 23.7458 22.6165C23.7176 22.7584 23.7321 22.9054 23.7874 23.039C23.8427 23.1727 23.9365 23.2869 24.0567 23.3672C24.177 23.4476 24.3184 23.4904 24.463 23.4904C24.6569 23.4904 24.8429 23.4134 24.9801 23.2763C25.1172 23.1391 25.1942 22.9531 25.1942 22.7592ZM25.9255 17.6404H23.0005C22.8065 17.6404 22.6206 17.7175 22.4834 17.8546C22.3463 17.9918 22.2692 18.1778 22.2692 18.3717C22.2692 18.5656 22.3463 18.7516 22.4834 18.8888C22.6206 19.0259 22.8065 19.1029 23.0005 19.1029H25.9255C26.1194 19.1029 26.3054 19.18 26.4426 19.3171C26.5797 19.4543 26.6567 19.6403 26.6567 19.8342V25.6842C26.6567 25.8781 26.5797 26.0641 26.4426 26.2013C26.3054 26.3384 26.1194 26.4154 25.9255 26.4154H14.2255C14.0315 26.4154 13.8456 26.3384 13.7084 26.2013C13.5713 26.0641 13.4942 25.8781 13.4942 25.6842V19.8342C13.4942 19.6403 13.5713 19.4543 13.7084 19.3171C13.8456 19.18 14.0315 19.1029 14.2255 19.1029H17.1505C17.3444 19.1029 17.5304 19.0259 17.6676 18.8888C17.8047 18.7516 17.8817 18.5656 17.8817 18.3717C17.8817 18.1778 17.8047 17.9918 17.6676 17.8546C17.5304 17.7175 17.3444 17.6404 17.1505 17.6404H14.2255C13.6437 17.6404 13.0857 17.8716 12.6743 18.283C12.2629 18.6944 12.0317 19.2524 12.0317 19.8342V25.6842C12.0317 26.266 12.2629 26.824 12.6743 27.2354C13.0857 27.6468 13.6437 27.8779 14.2255 27.8779H25.9255C26.5073 27.8779 27.0653 27.6468 27.4767 27.2354C27.8881 26.824 28.1192 26.266 28.1192 25.6842V19.8342C28.1192 19.2524 27.8881 18.6944 27.4767 18.283C27.0653 17.8716 26.5073 17.6404 25.9255 17.6404Z" fill="#A789FF"/>
</svg>
